<svg id="Layer_1" data-name="Layer 1" xmlns="http://www.w3.org/2000/svg" xmlns:xlink="http://www.w3.org/1999/xlink" viewBox="0 0 1978.9 690.76"><defs><style>.cls-1,.cls-14{fill:none;}.cls-2{font-size:150px;font-family:NasalizationRg-Regular, Nasalization;}.cls-3{letter-spacing:-0.02em;}.cls-4{letter-spacing:0em;}.cls-17,.cls-5{fill:#fff;}.cls-6{clip-path:url(#clip-path);}.cls-7{fill:url(#linear-gradient);}.cls-8{fill:#f3bd29;}.cls-9{fill:#fefffe;}.cls-10{fill:#7f8497;}.cls-11{fill:#dcdcd9;}.cls-12{fill:#fffdff;}.cls-13{fill:#9580ca;}.cls-14,.cls-16,.cls-17{stroke:#6d6d6d;stroke-miterlimit:10;}.cls-14{stroke-width:0.5px;}.cls-15{fill:#5f6062;}.cls-16{fill:red;}.cls-18{fill:#eae9ee;}.cls-19{fill:#c6c6c6;}.cls-20{fill:#b8bdd3;}.cls-21{fill:#ddd;}</style><clipPath id="clip-path" transform="translate(-53.04 -60.02)"><circle class="cls-1" cx="344.35" cy="351.33" r="291.31"/></clipPath><linearGradient id="linear-gradient" x1="83.31" y1="96.81" x2="508.87" y2="494.75" gradientUnits="userSpaceOnUse"><stop offset="0.08" stop-color="#1b181f"/><stop offset="1" stop-color="#320459"/></linearGradient></defs><title>angkasa-logo</title><text class="cls-2" transform="translate(933.86 350.43)">ng<tspan class="cls-3" x="209.85" y="0">k</tspan><tspan class="cls-4" x="297" y="0">asaE</tspan><tspan class="cls-3" x="690.44" y="0">x</tspan><tspan x="789.44" y="0">am</tspan></text><path d="M867.73,408.12l-20,.19L746,409.24c-5.5.05-7.79-3.83-5.08-8.61l50-88.54,9.84-17.41,50-88.53c2.71-4.79,7.21-4.83,10-.1l51.66,87.61,10.16,17.22,51.65,87.6c2.79,4.74.58,8.66-4.92,8.71Z" transform="translate(-53.04 -60.02)"/><path class="cls-5" d="M839.34,385.88l-31-3.86v-9.67s1.94-10.89,11.61-15.24c7.49-4.84,18.86-13.06,21.76-33.13s4.35-27.08,4.35-27.08,2.41-13.3,5.07-17.89c2.18-2.66,6.53-10.16,13.3,0,0,0,4.84,11.85,5.56,21.28,1.46,9.43,5,35.47,11.37,44,0,0,3.68,6.62,16.45,14.26,6.53,6.05,9.67,7.74,9.19,23.7l-31.19,3.63Z" transform="translate(-53.04 -60.02)"/><path class="cls-5" d="M843.33,370.93h23.52a6.5,6.5,0,0,1,6.5,6.5v17a2.17,2.17,0,0,1-2.17,2.17H839a2.17,2.17,0,0,1-2.17-2.17v-17a6.5,6.5,0,0,1,6.5-6.5Z" transform="translate(-40.41 -86.99) rotate(1.82)"/><path class="cls-5" d="M853.89,370.94h2.49a.69.69,0,0,1,.69.69v29.66a0,0,0,0,1,0,0h-3.87a0,0,0,0,1,0,0V371.62a.69.69,0,0,1,.69-.69Z" transform="translate(-40.34 -86.99) rotate(1.82)"/><path class="cls-5" d="M838.42,396.15h14.51a0,0,0,0,1,0,0V401a0,0,0,0,1,0,0H840.14a1.72,1.72,0,0,1-1.72-1.72v-3.12A0,0,0,0,1,838.42,396.15Z" transform="translate(-39.95 -86.69) rotate(1.82)"/><path class="cls-5" d="M857.9,396.72h12.79a0,0,0,0,1,0,0v4.84a0,0,0,0,1,0,0H856.18a0,0,0,0,1,0,0v-3.12A1.72,1.72,0,0,1,857.9,396.72Z" transform="translate(1660.72 765.48) rotate(-178.18)"/><g class="cls-6"><circle class="cls-7" cx="291.31" cy="291.31" r="291.31"/><g id="Page-1"><polygon class="cls-8" points="284.15 64.53 288.26 63.36 284.15 62.18 284.15 62.18 281.84 56.02 279.53 62.18 275.42 63.36 279.53 64.53 281.84 70.69 284.15 64.53 284.15 64.53"/><polygon class="cls-8" points="302.4 52.79 300.18 46.85 297.95 52.79 293.76 54.19 297.95 55.59 300.18 61.52 302.4 55.59 306.59 54.19 302.4 52.79 302.4 52.79 302.4 52.79"/><polygon class="cls-8" points="298.73 74.79 296.51 68.86 294.28 74.79 290.09 76.19 294.28 77.59 296.51 83.52 298.73 77.59 302.93 76.19 298.73 74.79 298.73 74.79 298.73 74.79"/><polygon class="cls-8" points="285.43 60.58 281.84 50.52 278.25 60.58 269.92 63.36 278.25 66.13 281.84 76.19 285.43 66.13 293.76 63.36 285.43 60.58 285.43 60.58 285.43 60.58"/></g><path class="cls-9" d="M557.29,551.52c-2.29,5.27-6.73,9.43-11.22,13.18a157.65,157.65,0,0,1-21.76,15.39,17.26,17.26,0,0,1,2.4,4.58c2.43,7.22-.21,15.36-3.46,22.56-20,44.34-63.2,75.86-108.77,94.18-13.73,5.53-28.36,10.11-42.79,8.83a45.32,45.32,0,0,1-4.87-.7,59.13,59.13,0,0,1-3.75,4.63,125.64,125.64,0,0,1-41.93,30.91c-8.21,3.71-17.2,6.57-25.95,5.45s-17-7.12-18.35-15.7a17.35,17.35,0,0,1,.47-7.08,27.35,27.35,0,0,1,7.6-12.33c.95-.9,2-1.76,3-2.56a25,25,0,0,1-2.34-3c-5-7.71-5.27-18.38-.6-26.94,5-9.19,14.64-15.08,25.19-19.85-11.92-3.27-19.7-15.23-19.8-27.55s6.57-24.56,16.07-33.31a37.71,37.71,0,0,1,13.92-8.64c7.7-2.42,16.32-1.06,24.75,6.73-7.33-9.8-9.46-23-7-35.51s9.13-24.21,17.83-34c5.77-6.52,12.55-12.33,20.42-16.12,12.95-6.24,28.49-6.37,40.7-.32a37.74,37.74,0,0,1,7.18,4.59l.07-.06c9-6.37,21.4-7.75,30.81-2.94a24.18,24.18,0,0,1,6.12,4.48c9.23-5.76,20.85-7.86,30.54-4.3a23.51,23.51,0,0,1,9.5,6.4,25.11,25.11,0,0,1,6.35,20.18c4-8,10.95-14.74,19.36-17.77a27.21,27.21,0,0,1,19.79.43,20.82,20.82,0,0,1,4.94,3,16.52,16.52,0,0,1,2.06,2A20.3,20.3,0,0,1,557.29,551.52Z" transform="translate(-53.04 -60.02)"/><path class="cls-9" d="M499,625c-6.36,6-11,10.76-18.85,16.9-4.9,3.5-8.77,8.49-14.11,11.29,4,.18,7.76-1.93,11.38-3.57,4.95-2.39,9.87-5.24,13.46-9.49a53.25,53.25,0,0,0,8.64-15.38C499.78,623.9,499.34,624.73,499,625Z" transform="translate(-53.04 -60.02)"/><path class="cls-9" d="M477.85,632.75a43.58,43.58,0,0,0,16.74-22.47C488.53,614.61,481.82,625.2,477.85,632.75Z" transform="translate(-53.04 -60.02)"/><path class="cls-9" d="M450.6,669.9a21.26,21.26,0,0,0,11.33-7.41C457.56,664.53,454.17,666.35,450.6,669.9Z" transform="translate(-53.04 -60.02)"/><path class="cls-9" d="M743.41,426.78c-2.29,4.86-6.54,8.78-10.82,12.33a160.1,160.1,0,0,1-20.66,14.66,14.2,14.2,0,0,1,2.07,4.09c2,6.47-.68,13.94-3.92,20.58-20,40.89-61,70.89-103.82,89-12.91,5.46-26.61,10.09-39.94,9.39a42.47,42.47,0,0,1-4.49-.48c-1.15,1.51-2.37,3-3.62,4.32a128.52,128.52,0,0,1-39.85,29.41c-7.73,3.63-16.15,6.52-24.22,5.79s-15.56-5.92-16.49-13.67a15.48,15.48,0,0,1,.66-6.44,27.18,27.18,0,0,1,7.44-11.44c.91-.84,1.87-1.65,2.85-2.41a19.6,19.6,0,0,1-2.07-2.69c-4.42-6.83-4.3-16.51.31-24.43,5-8.5,14.05-14.16,24-18.82-10.94-2.58-17.76-13.19-17.46-24.37s6.88-22.5,16-30.75a38.52,38.52,0,0,1,13.17-8.29c7.21-2.45,15.16-1.49,22.72,5.31-6.48-8.66-8-20.6-5.39-32s9.24-22.26,17.62-31.45a67.89,67.89,0,0,1,19.44-15.3c12.2-6.08,26.6-6.69,37.72-1.6a32,32,0,0,1,6.5,3.94l.07-.05c8.56-6.08,20.09-7.73,28.65-3.67a20.26,20.26,0,0,1,5.52,3.87c8.74-5.53,19.58-7.81,28.43-4.88a19.8,19.8,0,0,1,8.61,5.5,21.26,21.26,0,0,1,5.23,18.11,36.42,36.42,0,0,1,18.51-16.75c6.09-2.31,12.86-2.46,18.32-.25a17.41,17.41,0,0,1,4.49,2.59,14.08,14.08,0,0,1,1.84,1.71A17.6,17.6,0,0,1,743.41,426.78Z" transform="translate(-53.04 -60.02)"/><path class="cls-9" d="M687,495.36c-6.09,5.62-10.5,10.12-18,15.94-4.65,3.33-8.4,8-13.43,10.7,3.71,0,7.25-2,10.65-3.6,4.66-2.34,9.31-5.08,12.78-9a52.52,52.52,0,0,0,8.5-14.25C687.79,494.33,687.36,495.09,687,495.36Z" transform="translate(-53.04 -60.02)"/><path class="cls-9" d="M667.18,503.06a43.63,43.63,0,0,0,16.24-20.93C677.66,486.26,671.11,496.09,667.18,503.06Z" transform="translate(-53.04 -60.02)"/><path class="cls-9" d="M640.74,537.67a21.68,21.68,0,0,0,10.74-7.1A37,37,0,0,0,640.74,537.67Z" transform="translate(-53.04 -60.02)"/><rect class="cls-9" x="467.09" y="415.27" width="24.68" height="122.22" transform="translate(-244.13 331.55) rotate(-37.61)"/><rect class="cls-9" x="426.12" y="443.49" width="24.68" height="122.22" transform="translate(-269.86 312.42) rotate(-37.61)"/><g id="Page-1-2" data-name="Page-1"><g id="icon-39-stars"><path id="stars" class="cls-8" d="M441.08,153.07l4.11-1.18-4.11-1.17h0l-2.31-6.16-2.31,6.16-4.1,1.17,4.1,1.18,2.31,6.16,2.31-6.16Zm18.25-11.74-2.22-5.94-2.23,5.94-4.19,1.4,4.19,1.39,2.23,5.94,2.22-5.94,4.19-1.39-4.19-1.4Zm-3.66,22-2.23-5.94-2.23,5.94-4.19,1.4,4.19,1.4,2.23,5.93,2.23-5.93,4.19-1.4-4.19-1.4Zm-13.3-14.21-3.6-10.06-3.59,10.06-8.32,2.77,8.32,2.78,3.59,10.06,3.6-10.06,8.32-2.78-8.32-2.77Z" transform="translate(-53.04 -60.02)"/></g></g><polygon class="cls-8" points="73.57 180.77 69.98 170.71 66.38 180.77 58.06 183.55 66.38 186.32 69.98 196.38 73.57 186.32 81.89 183.55 73.57 180.77 73.57 180.77 73.57 180.77"/><polygon class="cls-8" points="116.35 272.44 112.75 262.39 109.16 272.45 100.84 275.22 109.17 278 112.76 288.05 116.35 277.99 124.67 275.22 116.35 272.44 116.35 272.44 116.35 272.44"/><polygon class="cls-8" points="140.79 89.1 137.2 79.04 133.61 89.1 125.28 91.88 133.61 94.65 137.2 104.71 140.79 94.65 149.12 91.88 140.79 89.1 140.79 89.1 140.79 89.1"/><polygon class="cls-8" points="104.13 355.97 100.53 345.91 96.94 355.97 88.62 358.74 96.94 361.52 100.53 371.58 104.13 361.52 112.45 358.74 104.13 355.97 104.13 355.97 104.13 355.97"/></g><path class="cls-10" d="M363.56,454.14l-77.71,45.74-17.06-22.15s-14.77-28.33-.3-55.36c8.64-24.3,20.16-63.18-8.6-114.27s-37.81-69.7-37.81-69.7-17.93-34.73-19.94-49.94c.29-9.93-3-34.78,30.46-23.46,0,0,32,18.6,50.27,38.92,20,19,74,72.47,103.67,80.74,0,0,20.12,8.68,62.83,3.66,25.62,2.33,35.81.66,62.85,38.06l-65,63.34Z" transform="translate(-53.04 -60.02)"/><path class="cls-11" d="M351.62,438.63,282.3,485s-13.65-17.72-10.25-36.22,14.46-38.5,14.46-38.5,12.05-19.87,7.48-38.41-15.94-53.9-35.52-81.62h0L359.79,421.75Z" transform="translate(-53.04 -60.02)"/><path class="cls-12" d="M434.31,377.44l62.49-55.2s-13.65-17.72-32.41-19.16-40.91,4.16-40.91,4.16-22.29,6.58-39.05-2.57-48.05-29.16-69.85-55.17h0L415.9,381Z" transform="translate(-53.04 -60.02)"/><path class="cls-12" d="M350.5,433l-63.95,42.81s-12.49-16.21-9.29-33.2,13.46-35.39,13.46-35.39,11.17-18.29,7-35.29-14.45-49.41-32.35-74.77h0l92.68,120.31Z" transform="translate(-53.04 -60.02)"/><path class="cls-5" d="M310.3,238.38l107.08,139-57.59,44.37-107.08-139s-26.74-38.7-29.39-41.86S202,196.26,202.24,189.14s-4.56-36.43,30.91-23.82c18.33,11.6,36.88,24.74,39.7,28.71Z" transform="translate(-53.04 -60.02)"/><path class="cls-13" d="M269.53,204.93a24.11,24.11,0,0,0-38.21,29.43s.67-8.76,17.28-21.55S269.53,204.93,269.53,204.93Z" transform="translate(-53.04 -60.02)"/><line class="cls-14" x1="215.52" y1="242.73" x2="272.56" y2="198.79"/><line class="cls-14" x1="257.75" y1="297.55" x2="314.79" y2="253.61"/><path class="cls-15" d="M235.24,166.65" transform="translate(-53.04 -60.02)"/><rect class="cls-16" x="288.56" y="443.09" width="15.35" height="4.87" transform="translate(-254.85 190.05) rotate(-34.95)"/><rect class="cls-17" x="291.35" y="447.09" width="15.35" height="4.87" transform="translate(-256.63 192.37) rotate(-34.95)"/><path class="cls-15" d="M203.62,195.53l35.46-26.41s-14-14.58-30.2-5.21S203.62,195.53,203.62,195.53Z" transform="translate(-53.04 -60.02)"/><path class="cls-18" d="M376.13,387.1H438a21.83,21.83,0,0,1,21.83,21.83v45a7.28,7.28,0,0,1-7.28,7.28h-91a7.28,7.28,0,0,1-7.28-7.28v-45a21.83,21.83,0,0,1,21.83-21.83Z" transform="translate(-227.29 276.54) rotate(-37.61)"/><path class="cls-19" d="M408.24,385.47h6.56a2.31,2.31,0,0,1,2.31,2.31V473.2a0,0,0,0,1,0,0H405.92a0,0,0,0,1,0,0V387.78A2.31,2.31,0,0,1,408.24,385.47Z" transform="translate(-229.53 280.33) rotate(-37.61)"/><path class="cls-20" d="M392.28,467.55h41.94a0,0,0,0,1,0,0v14a0,0,0,0,1,0,0H398.06a5.78,5.78,0,0,1-5.78-5.78v-8.2A0,0,0,0,1,392.28,467.55Z" transform="translate(-256.76 290.78) rotate(-37.61)"/><path class="cls-20" d="M438.77,436.2h36.16a0,0,0,0,1,0,0v14a0,0,0,0,1,0,0H433a0,0,0,0,1,0,0V442A5.78,5.78,0,0,1,438.77,436.2Z" transform="translate(1031 457.23) rotate(142.39)"/><path class="cls-21" d="M334.39,269.65s44.52,38.74,66.45,39.84l48.25,54.89L434,377.81l-18.22-2.53Z" transform="translate(-53.04 -60.02)"/></svg>