<svg id="Layer_1" data-name="Layer 1" xmlns="http://www.w3.org/2000/svg" xmlns:xlink="http://www.w3.org/1999/xlink" viewBox="0 0 190.85 190.49"><defs><style>.cls-1,.cls-10{fill:none;}.cls-2{clip-path:url(#clip-path);}.cls-3{fill:url(#linear-gradient);}.cls-4{fill:#f2bd26;}.cls-13,.cls-5{fill:#fff;}.cls-6{fill:#7f8498;}.cls-7{fill:#dcddda;}.cls-8{fill:#fffefe;}.cls-9{fill:#9580bb;}.cls-10,.cls-12,.cls-13{stroke:#6d6e6e;stroke-miterlimit:10;}.cls-10{stroke-width:0.25px;}.cls-11{fill:#606163;}.cls-12{fill:#ed2224;}.cls-14{fill:#eae9ed;}.cls-15{fill:#c7c6c5;}.cls-16{fill:#b8bdd3;}.cls-17{fill:#ddd;}</style><clipPath id="clip-path" transform="translate(-39.93 -44.55)"><circle class="cls-1" cx="120.26" cy="124.88" r="80.33"/></clipPath><linearGradient id="linear-gradient" x1="22.97" y1="26.7" x2="140.33" y2="136.43" gradientUnits="userSpaceOnUse"><stop offset="0.08" stop-color="#1b181f"/><stop offset="1" stop-color="#331b58"/></linearGradient></defs><title>angkasa-logo-only</title><g class="cls-2"><circle class="cls-3" cx="80.33" cy="80.33" r="80.33"/><g id="Page-1"><polygon class="cls-4" points="78.36 17.8 79.49 17.47 78.36 17.15 78.36 17.15 77.72 15.45 77.08 17.15 75.95 17.47 77.08 17.8 77.72 19.49 78.36 17.8 78.36 17.8"/><polygon class="cls-4" points="83.39 14.56 82.78 12.92 82.16 14.56 81.01 14.94 82.16 15.33 82.78 16.97 83.39 15.33 84.55 14.94 83.39 14.56 83.39 14.56 83.39 14.56"/><polygon class="cls-4" points="82.38 20.63 81.77 18.99 81.15 20.63 80 21.01 81.15 21.39 81.77 23.03 82.38 21.39 83.53 21.01 82.38 20.63 82.38 20.63 82.38 20.63"/><polygon class="cls-4" points="78.71 16.71 77.72 13.93 76.73 16.71 74.44 17.47 76.73 18.24 77.72 21.01 78.71 18.24 81.01 17.47 78.71 16.71 78.71 16.71 78.71 16.71"/></g><path class="cls-5" d="M179,180.09a10.42,10.42,0,0,1-3.09,3.63,42.82,42.82,0,0,1-6,4.24,5.47,5.47,0,0,1,.66,1.27c.67,2-.06,4.23-1,6.22-5.52,12.23-17.42,20.92-30,26-3.79,1.53-7.82,2.79-11.8,2.44a12,12,0,0,1-1.34-.2c-.33.45-.68.88-1,1.28a34.48,34.48,0,0,1-11.56,8.52A13.64,13.64,0,0,1,106.7,235c-2.4-.31-4.7-2-5.06-4.33a4.82,4.82,0,0,1,.13-2,7.6,7.6,0,0,1,2.1-3.4c.26-.24.54-.48.82-.7a6.64,6.64,0,0,1-.64-.84,7.36,7.36,0,0,1-.17-7.43c1.39-2.53,4-4.16,7-5.47a7.88,7.88,0,0,1-5.46-7.6,12.84,12.84,0,0,1,4.43-9.19,10.54,10.54,0,0,1,3.84-2.38c2.12-.67,4.5-.29,6.82,1.86a12.48,12.48,0,0,1-1.94-9.8,20.24,20.24,0,0,1,4.92-9.38,18.28,18.28,0,0,1,5.63-4.45,13,13,0,0,1,11.22-.08,10.22,10.22,0,0,1,2,1.26h0a8.45,8.45,0,0,1,8.5-.81,7,7,0,0,1,1.69,1.23,9.84,9.84,0,0,1,8.42-1.18,6.5,6.5,0,0,1,2.62,1.76,7,7,0,0,1,1.75,5.57,9.86,9.86,0,0,1,5.34-4.9,7.47,7.47,0,0,1,5.45.11,5.79,5.79,0,0,1,1.37.84,4.73,4.73,0,0,1,.56.54A5.6,5.6,0,0,1,179,180.09Z" transform="translate(-39.93 -44.55)"/><path class="cls-5" d="M162.91,200.35a63.15,63.15,0,0,1-5.2,4.66c-1.35,1-2.42,2.34-3.89,3.11a7.17,7.17,0,0,0,3.14-1,11,11,0,0,0,3.71-2.62,14.44,14.44,0,0,0,2.38-4.24C163.12,200.05,163,200.27,162.91,200.35Z" transform="translate(-39.93 -44.55)"/><path class="cls-5" d="M157.07,202.49a12,12,0,0,0,4.62-6.2C160,197.49,158.17,200.41,157.07,202.49Z" transform="translate(-39.93 -44.55)"/><path class="cls-5" d="M149.56,212.73a5.86,5.86,0,0,0,3.13-2A9.83,9.83,0,0,0,149.56,212.73Z" transform="translate(-39.93 -44.55)"/><path class="cls-5" d="M230.31,145.69a10.74,10.74,0,0,1-3,3.4,44.21,44.21,0,0,1-5.7,4,3.9,3.9,0,0,1,.58,1.13c.55,1.78-.19,3.84-1.09,5.68-5.51,11.27-16.82,19.54-28.63,24.53-3.55,1.51-7.33,2.79-11,2.59a10.43,10.43,0,0,1-1.24-.13,14.52,14.52,0,0,1-1,1.19,35.34,35.34,0,0,1-11,8.11,13.48,13.48,0,0,1-6.68,1.6c-2.22-.21-4.29-1.63-4.55-3.77a4.29,4.29,0,0,1,.18-1.77,7.58,7.58,0,0,1,2.05-3.16,9.86,9.86,0,0,1,.79-.66,5.93,5.93,0,0,1-.57-.75,6.53,6.53,0,0,1,.08-6.73c1.37-2.35,3.88-3.91,6.62-5.19a6.58,6.58,0,0,1-4.82-6.72c.09-3.09,1.9-6.21,4.4-8.48a10.57,10.57,0,0,1,3.64-2.29,6,6,0,0,1,6.26,1.46,10.73,10.73,0,0,1-1.48-8.82,19.86,19.86,0,0,1,4.85-8.68,18.76,18.76,0,0,1,5.37-4.21,12.35,12.35,0,0,1,10.4-.45,9.3,9.3,0,0,1,1.79,1.09h0a8.15,8.15,0,0,1,7.9-1,5.87,5.87,0,0,1,1.52,1.07,9.58,9.58,0,0,1,7.84-1.34,5.46,5.46,0,0,1,2.38,1.51,5.92,5.92,0,0,1,1.44,5,10,10,0,0,1,5.1-4.62,7,7,0,0,1,5.05-.07,4.76,4.76,0,0,1,1.24.71,3.3,3.3,0,0,1,.51.48A4.84,4.84,0,0,1,230.31,145.69Z" transform="translate(-39.93 -44.55)"/><path class="cls-5" d="M214.76,164.6c-1.68,1.55-2.89,2.79-5,4.4-1.28.91-2.31,2.2-3.7,2.95a7.2,7.2,0,0,0,2.94-1,11.21,11.21,0,0,0,3.52-2.49,14.64,14.64,0,0,0,2.35-3.93C215,164.32,214.85,164.53,214.76,164.6Z" transform="translate(-39.93 -44.55)"/><path class="cls-5" d="M209.29,166.72a12,12,0,0,0,4.47-5.77C212.17,162.09,210.37,164.8,209.29,166.72Z" transform="translate(-39.93 -44.55)"/><path class="cls-5" d="M202,176.27a6,6,0,0,0,3-2A10.38,10.38,0,0,0,202,176.27Z" transform="translate(-39.93 -44.55)"/><rect class="cls-5" x="154.11" y="142.51" width="6.81" height="33.7" transform="translate(-104.45 84.69) rotate(-37.61)"/><rect class="cls-5" x="142.81" y="150.3" width="6.81" height="33.7" transform="translate(-111.55 79.41) rotate(-37.61)"/><g id="Page-1-2" data-name="Page-1"><g id="icon-39-stars"><path id="stars" class="cls-4" d="M146.94,70.21l1.13-.33-1.13-.32h0l-.64-1.7-.64,1.7-1.13.32,1.13.33.64,1.7.64-1.7ZM152,67l-.62-1.64L150.74,67l-1.16.39,1.16.38.61,1.64.62-1.64,1.15-.38L152,67ZM151,73l-.62-1.64L149.73,73l-1.16.38,1.16.39.61,1.64.62-1.64,1.15-.39L151,73Zm-3.67-3.92-1-2.77-1,2.77-2.3.76,2.3.77,1,2.77,1-2.77,2.29-.77-2.29-.76Z" transform="translate(-39.93 -44.55)"/></g></g><polygon class="cls-4" points="20.29 49.85 19.3 47.08 18.31 49.85 16.01 50.62 18.31 51.38 19.3 54.16 20.29 51.38 22.58 50.62 20.29 49.85 20.29 49.85 20.29 49.85"/><polygon class="cls-4" points="32.08 75.13 31.09 72.36 30.1 75.13 27.81 75.9 30.1 76.66 31.09 79.43 32.09 76.66 34.38 75.89 32.08 75.13 32.08 75.13 32.08 75.13"/><polygon class="cls-4" points="38.83 24.57 37.84 21.8 36.84 24.57 34.55 25.34 36.84 26.1 37.84 28.88 38.83 26.1 41.12 25.34 38.83 24.57 38.83 24.57 38.83 24.57"/><polygon class="cls-4" points="28.71 98.16 27.72 95.39 26.73 98.16 24.44 98.93 26.73 99.69 27.72 102.47 28.71 99.69 31.01 98.93 28.71 98.16 28.71 98.16 28.71 98.16"/></g><path class="cls-6" d="M125.56,153.23l-21.43,12.62-4.71-6.11s-4.07-7.81-.08-15.27c2.38-6.7,5.56-17.42-2.37-31.51S86.54,93.74,86.54,93.74,81.6,84.16,81,80c.08-2.74-.81-9.59,8.4-6.47,0,0,8.82,5.13,13.87,10.73,5.5,5.25,20.39,20,28.59,22.27,0,0,5.54,2.39,17.32,1,7.07.64,9.87.18,17.33,10.49l-17.93,17.47Z" transform="translate(-39.93 -44.55)"/><path class="cls-7" d="M122.26,149l-19.11,12.77s-3.76-4.88-2.83-10a41.64,41.64,0,0,1,4-10.62s3.32-5.48,2.06-10.59S102,115.67,96.58,108h0l27.94,36.27Z" transform="translate(-39.93 -44.55)"/><path class="cls-8" d="M145.07,132.08l17.23-15.22s-3.76-4.89-8.94-5.28a41.58,41.58,0,0,0-11.28,1.14s-6.15,1.82-10.77-.7-13.25-8-19.26-15.22h0L140,133.07Z" transform="translate(-39.93 -44.55)"/><path class="cls-8" d="M122,147.41l-17.64,11.81s-3.44-4.47-2.56-9.16a38.36,38.36,0,0,1,3.71-9.76s3.08-5,1.94-9.73-4-13.63-8.92-20.62h0l25.56,33.18Z" transform="translate(-39.93 -44.55)"/><path class="cls-5" d="M110.87,93.73l29.53,38.34L124.52,144.3,95,106S87.62,95.3,86.88,94.43,81,82.12,81.07,80.16s-1.26-10,8.53-6.57c5.05,3.2,10.17,6.82,10.94,7.91Z" transform="translate(-39.93 -44.55)"/><path class="cls-9" d="M99.63,84.51a6.65,6.65,0,1,0-10.54,8.12s.19-2.42,4.77-5.95S99.63,84.51,99.63,84.51Z" transform="translate(-39.93 -44.55)"/><line class="cls-10" x1="59.43" y1="66.94" x2="75.16" y2="54.82"/><line class="cls-10" x1="71.08" y1="82.05" x2="86.81" y2="69.94"/><path class="cls-11" d="M90.17,74" transform="translate(-39.93 -44.55)"/><rect class="cls-12" x="104.87" y="150.19" width="4.23" height="1.34" transform="translate(-107.06 43.95) rotate(-34.95)"/><rect class="cls-13" x="105.64" y="151.29" width="4.23" height="1.34" transform="translate(-107.55 44.59) rotate(-34.95)"/><path class="cls-11" d="M81.45,81.92l9.78-7.29s-3.86-4-8.33-1.43S81.45,81.92,81.45,81.92Z" transform="translate(-39.93 -44.55)"/><path class="cls-14" d="M137.56,134.74h0a14.55,14.55,0,0,1,14.55,14.55v1a4.85,4.85,0,0,1-4.85,4.85H127.86a4.85,4.85,0,0,1-4.85-4.85v-1a14.55,14.55,0,0,1,14.55-14.55Z" transform="translate(-99.81 69.52) rotate(-37.61)"/><path class="cls-15" d="M138.78,134.3h0a1.54,1.54,0,0,1,1.54,1.54v22.65a0,0,0,0,1,0,0h-3.08a0,0,0,0,1,0,0V135.84A1.54,1.54,0,0,1,138.78,134.3Z" transform="translate(-100.43 70.56) rotate(-37.61)"/><path class="cls-16" d="M133.48,156.93H145a0,0,0,0,1,0,0v3.86a0,0,0,0,1,0,0h-7.71a3.86,3.86,0,0,1-3.86-3.86v0A0,0,0,0,1,133.48,156.93Z" transform="translate(-107.93 73.45) rotate(-37.61)"/><path class="cls-16" d="M148.56,148.28h7.71a0,0,0,0,1,0,0v3.86a0,0,0,0,1,0,0H144.7a0,0,0,0,1,0,0v0A3.86,3.86,0,0,1,148.56,148.28Z" transform="translate(321.44 132.83) rotate(142.39)"/><path class="cls-17" d="M117.51,102.36s12.28,10.68,18.33,11l13.3,15.14L145,132.19l-5-.7Z" transform="translate(-39.93 -44.55)"/></svg>