<svg id="Layer_1" data-name="Layer 1" xmlns="http://www.w3.org/2000/svg" viewBox="0 0 121 121"><defs><style>.cls-1{fill:none;stroke:#686868;stroke-miterlimit:10;stroke-width:3px;}</style></defs><title>user2</title><g id="layer1"><path id="path935" class="cls-1" d="M50.77,58.15A34.53,34.53,0,0,0,29,90.19a2.3,2.3,0,0,0,2.29,2.31H95.71A2.31,2.31,0,0,0,98,90.19a34.54,34.54,0,0,0-21.77-32,20.51,20.51,0,0,1-25.46,0Z" transform="translate(-3 -4)"/><path id="path940" class="cls-1" d="M63.5,23.5A18.4,18.4,0,1,0,81.9,41.89,18.42,18.42,0,0,0,63.5,23.5Z" transform="translate(-3 -4)"/></g><circle class="cls-1" cx="60.5" cy="60.5" r="59"/></svg>